<?xml version="1.0" encoding="utf-8"?>
<!-- Generator: Adobe Illustrator 21.1.0, SVG Export Plug-In . SVG Version: 6.00 Build 0)  -->
<svg version="1.1" id="Layer_1" xmlns="http://www.w3.org/2000/svg" xmlns:xlink="http://www.w3.org/1999/xlink" x="0px" y="0px"
	 viewBox="0 0 6100.8 941.8" style="enable-background:new 0 0 6100.8 941.8;" xml:space="preserve">
<style type="text/css">
	.st0{display:none;fill:#222222;}
	.st1{fill:#FFFFFF;}
</style>
<rect x="3762.8" y="81.5" class="st0" width="769" height="768"/>
<path class="st1" d="M3982.1,752.7c-342.9-400.1,192.9-888.2,495-473.5C4137.2,39.5,3779.9,451.4,3982.1,752.7z"/>
<path class="st1" d="M4654.2,595.3c-175.1,497.1-865.7,277-657.5-191.9C3959,817.6,4494.5,921.1,4654.2,595.3z"/>
<path class="st1" d="M4182.1,92.6c518-96.9,672.7,611.2,162.5,665.4C4722.2,583.6,4544.1,68.1,4182.1,92.6z"/>
<g>
	<path class="st1" d="M418.8,795.2v-420c0-119.5-60.4-155.4-150.3-155.4c-79.6,0-161.8,50.1-201.7,106.6v468.8H0.1V174.8h66.8v93.8
		c45-53.9,133.6-109.2,223.5-109.2c125.9,0,195.2,61.7,195.2,201.7v434.2H418.8z"/>
	<path class="st1" d="M659,484.4c0-181.1,115.6-325,296.7-325c183.7,0,299.3,143.9,299.3,325c0,181.1-115.6,326.3-299.3,326.3
		C774.6,810.7,659,665.5,659,484.4z M1183.1,484.4c0-137.4-80.9-264.6-227.4-264.6c-143.9,0-226.1,127.2-226.1,264.6
		c0,138.7,82.2,265.9,226.1,265.9C1102.2,750.3,1183.1,623.1,1183.1,484.4z"/>
	<path class="st1" d="M2165.8,795.2V361.1c0-87.3-37.3-141.3-124.6-141.3c-66.8,0-142.6,48.8-177.3,105.3v470.1h-68.1V361.1
		c0-87.3-36-141.3-123.3-141.3c-66.8,0-141.3,50.1-178.5,106.6v468.8h-66.8V174.8h66.8v93.8c25.7-39.8,110.5-109.2,200.4-109.2
		c96.3,0,147.7,56.5,163.1,116.9c34.7-57.8,118.2-116.9,205.5-116.9c114.3,0,169.6,64.2,169.6,188.8v447H2165.8z"/>
	<path class="st1" d="M2405.9,484.4c0-181.1,115.6-325,296.7-325c183.7,0,299.3,143.9,299.3,325c0,181.1-115.6,326.3-299.3,326.3
		C2521.5,810.7,2405.9,665.5,2405.9,484.4z M2930,484.4c0-137.4-80.9-264.6-227.4-264.6c-143.9,0-226.1,127.2-226.1,264.6
		c0,138.7,82.2,265.9,226.1,265.9C2849.1,750.3,2930,623.1,2930,484.4z"/>
	<path class="st1" d="M3120.1,711.7l39.8-48.8c39.8,50.1,113,91.2,200.4,91.2c104,0,165.7-53.9,165.7-125.9
		c0-169.6-391.8-73.2-391.8-296.7c0-95.1,80.9-172.1,220.9-172.1c106.6,0,177.3,41.1,222.2,91.2l-37.3,47.5
		c-36-48.8-102.8-82.2-185-82.2c-96.3,0-154.1,48.8-154.1,113c0,155.4,390.5,60.4,390.5,299.3c0,100.2-77.1,182.4-232.5,182.4
		C3258.9,810.7,3181.8,781.1,3120.1,711.7z"/>
	<path class="st1" d="M5269.7,795.2v-420c0-119.5-60.4-155.4-150.3-155.4c-79.6,0-161.8,50.1-201.7,106.6v468.8H4851V174.8h66.8
		v93.8c45-53.9,133.6-109.2,223.5-109.2c125.9,0,195.2,61.7,195.2,201.7v434.2H5269.7z"/>
	<path class="st1" d="M5509.9,484.4c0-179.8,125.9-325,298-325c188.8,0,292.9,149,292.9,328.8v18h-518.9
		c6.4,134.9,96.3,246.6,242.8,246.6c78.4,0,150.3-29.5,203-86.1l34.7,43.7c-61.7,64.2-140,100.2-242.8,100.2
		C5638.4,810.7,5509.9,675.8,5509.9,484.4z M5806.7,217.2c-146.4,0-219.6,128.5-224.8,236.3h450.9
		C6031.4,348.2,5962.1,217.2,5806.7,217.2z"/>
</g>
</svg>
